<?xml version="1.0" encoding="iso-8859-1"?>
<!-- Generator: Adobe Illustrator 19.0.0, SVG Export Plug-In . SVG Version: 6.00 Build 0)  -->
<svg version="1.1" id="Layer_1" xmlns="http://www.w3.org/2000/svg" xmlns:xlink="http://www.w3.org/1999/xlink" x="0px" y="0px"
	 viewBox="0 0 512 512" style="enable-background:new 0 0 512 512;" xml:space="preserve">
<g>
	<g>
		<path d="M75.479,171.401c-5.606,0-10.156,4.55-10.156,10.156c0,5.616,4.55,10.156,10.156,10.156
			c5.606,0,10.156-4.54,10.156-10.156C85.635,175.951,81.085,171.401,75.479,171.401z"/>
	</g>
</g>
<g>
	<g>
		<path d="M100.533,151.496c-13.924-11.852-37.475-6.307-53.613,12.644c-7.251,8.521-11.882,18.565-13.04,28.284
			c-1.29,10.907,2.031,20.627,9.1,26.649c4.946,4.215,11.1,6.226,17.712,6.226c11.994,0,25.481-6.652,35.891-18.87
			c7.261-8.521,11.893-18.565,13.04-28.274C110.913,167.237,107.602,157.518,100.533,151.496z M91.474,176.002
			c-0.721,6.083-3.93,12.857-8.805,18.575c-7.993,9.384-21.591,15.894-27.837,10.582c-3.199-2.732-3.128-7.81-2.793-10.593
			c0.721-6.083,3.93-12.847,8.805-18.575c6.002-7.048,15.183-12.482,22.028-12.482c2.255,0,4.255,0.589,5.799,1.909
			C91.87,168.141,91.799,173.219,91.474,176.002z"/>
	</g>
</g>
<g>
	<g>
		<path d="M163.723,171.401c-5.606,0-10.156,4.55-10.156,10.156c0,5.616,4.55,10.156,10.156,10.156
			c5.606,0,10.156-4.54,10.156-10.156C173.879,175.951,169.329,171.401,163.723,171.401z"/>
	</g>
</g>
<g>
	<g>
		<path d="M205.322,192.424c-1.158-9.719-5.789-19.763-13.04-28.284c-16.138-18.951-39.679-24.496-53.603-12.644
			c-7.079,6.022-10.39,15.742-9.1,26.659c1.148,9.709,5.779,19.753,13.04,28.274c10.41,12.218,23.897,18.87,35.901,18.87
			c6.601,0,12.756-2.011,17.702-6.226C203.301,213.051,206.612,203.332,205.322,192.424z M184.37,205.16
			c-6.246,5.312-19.845-1.198-27.837-10.582c-4.875-5.718-8.084-12.492-8.795-18.575c-0.335-2.783-0.406-7.861,2.793-10.582
			c1.544-1.32,3.544-1.909,5.799-1.909c6.845,0,16.026,5.433,22.028,12.482c4.875,5.728,8.084,12.492,8.805,18.575
			C187.498,197.35,187.569,202.428,184.37,205.16z"/>
	</g>
</g>
<g>
	<g>
		<g>
			<path d="M482.538,213.67c-0.132-0.223-0.254-0.447-0.406-0.66c-5.941-25.644-28.548-53.745-60.996-74.666
				c-25.644-16.544-53.146-26.477-75.976-27.553c-0.477-0.071-118.814-0.112-118.814-0.112c-2.976-24.455-18.9-42.584-38.684-42.584
				c-10.887,0-20.931,5.606-28.183,15.386c-12.441-5.86-26.05-8.917-39.882-8.917c-13.822,0-27.431,3.057-39.872,8.917
				c-7.251-9.78-17.285-15.386-28.193-15.386c-21.977,0-39.192,22.373-39.192,50.932c0,9.74,2.112,19.174,6.043,27.269
				C6.337,163.195,0,182.593,0,202.783c0,24.659,9.75,48.667,27.451,67.608c16.351,17.488,38.785,29.929,63.515,35.322
				c-0.538,1.229-0.843,2.58-0.853,4.012l-0.335,46.311c-0.051,9.059-4.154,17.397-11.009,22.302
				c-9.465,6.784-15.112,17.773-15.112,29.411c0,19.936,16.219,36.155,36.155,36.155c22.15,0,41.944-10.268,54.893-26.283
				c6.043,4.286,13.335,6.723,20.911,6.723c1.452,0,2.803-0.081,4.083-0.234c27.218-3.077,50.312-21.774,59.006-47.692
				c16.585,3.016,33.291,4.723,50.028,5.108c-0.051,0.752-0.081,1.503-0.081,2.255c0,19.936,16.219,36.145,36.145,36.145h39.578
				c5.687,12.512,18.301,21.236,32.915,21.236h54.192c17.661,0,32.032-14.371,32.032-32.032l0.213-131.854
				C499.518,276.017,512,262.256,512,245.509C512,228.346,498.889,214.32,482.538,213.67z M81.846,257.066
				c0-5.047-4.093-9.14-9.14-9.14s-9.14,4.093-9.14,9.14c0,7.658,2.681,14.706,7.14,20.271c-10.816-5.312-20.495-12.35-28.416-20.82
				c-14.371-15.386-21.977-33.961-21.977-53.735c0-17.732,6.256-34.764,18.088-49.256l4.794-5.87l-4.255-6.256
				c-4.052-5.961-6.286-13.914-6.286-22.373c0-16.31,8.826-30.62,18.88-30.62c5.748,0,11.568,4.926,15.193,12.857l4.763,10.44
				l9.78-6.002c11.557-7.089,24.811-10.826,38.328-10.826c13.528,0,26.781,3.737,38.339,10.826l9.77,5.992l4.773-10.42
				c3.626-7.932,9.445-12.868,15.183-12.868c10.065,0,18.88,14.31,18.88,30.62c0,8.46-2.224,16.412-6.276,22.373l-4.255,6.256
				l4.794,5.87c11.832,14.503,18.088,31.534,18.088,49.256c0,19.774-7.597,38.359-21.977,53.735
				c-8.115,8.683-18.098,15.874-29.249,21.216c4.662-5.616,7.454-12.817,7.454-20.667c0-5.047-4.093-9.14-9.14-9.14
				s-9.14,4.093-9.14,9.14c0,7.82-6.358,14.178-14.178,14.178c-7.81,0-14.178-6.358-14.178-14.178v-4.722
				c1.899-0.934,3.676-2.184,5.251-3.758l7.221-7.211c3.575-3.575,3.575-9.364,0-12.928c-3.565-3.575-9.354-3.575-12.928,0
				l-7.211,7.221c-0.67,0.66-1.757,0.66-2.427,0l-7.211-7.221c-3.575-3.575-9.364-3.575-12.928,0c-3.575,3.565-3.575,9.354,0,12.928
				l7.221,7.211c1.432,1.442,3.037,2.6,4.733,3.514v4.966c0,7.82-6.358,14.178-14.178,14.178
				C88.214,271.244,81.846,264.886,81.846,257.066z M136.424,288.915c-3.148,6.256-9.607,10.572-17.082,10.572
				c-7.465,0-13.934-4.316-17.072-10.572c6.632-1.3,12.553-4.621,17.072-9.303C123.872,284.294,129.782,287.615,136.424,288.915z
				 M164.617,331.54c-1.32-0.63-2.803-0.995-4.367-0.995c-5.616,0-10.156,4.55-10.156,10.156v32.611
				c0,27.726-22.556,50.282-50.282,50.282c-8.734,0-15.843-7.109-15.843-15.843c0-5.098,2.478-9.922,6.632-12.898
				c12.126-8.683,19.408-23.166,19.489-38.694l0.284-39.476c2.874,0.711,5.88,1.087,8.968,1.087c10.674,0,20.312-4.499,27.137-11.7
				c18.727-3.808,36.206-11.649,50.8-22.688c-3.727,18.859-9.262,37.343-16.564,55.258c-5.423-2.214-10.796-4.58-16.097-7.109
				V331.54z M177.373,403.941c-0.538,0.061-9.75,0.65-12.238-3.91c3.382-8.247,5.271-17.265,5.271-26.72V356.33
				c15.721,6.581,31.879,11.882,48.251,15.853C211.913,389.479,196.019,401.819,177.373,403.941z M233.078,354.624
				c-11.222-2.326-22.343-5.322-33.301-8.947c11.375-28.091,18.687-57.472,21.795-87.503c11.446-16.564,17.631-35.769,17.631-55.39
				c0-20.19-6.327-39.578-18.382-56.487c2.285-4.712,3.94-9.892,4.936-15.305h69.284c-15.975,48.992-13.731,101.935,6.388,149.231
				c12.35,29.026,30.864,54.669,53.969,75.316c-4.926,0.975-16.503,2.732-16.879,2.783
				C303.377,363.297,267.923,362.058,233.078,354.624z M361.54,399.615h-36.744c-8.734,0-15.833-7.099-15.833-15.833
				c0-0.823,0.081-1.635,0.203-2.427c10.562-0.427,21.134-1.371,31.666-2.844c0.904-0.051,24.303-4.052,35.109-6.784
				c1.026,0.711,2.041,1.412,3.077,2.092C369.807,379.242,363.185,388.626,361.54,399.615z M463.201,409.131
				c0,6.459-5.261,11.72-11.72,11.72h-54.192c-8.734,0-15.843-7.109-15.843-15.843c0-8.744,7.109-15.843,15.843-15.843h11.202
				c5.616,0,10.156-4.55,10.156-10.156c0-4.184-2.529-7.769-6.134-9.333c-20.728-10.105-39.293-23.795-54.943-40.289
				c-15.65-16.503-28.386-35.81-37.445-57.117c-18.342-43.122-20.271-91.454-5.433-136.089c0.579-1.737,0.66-3.514,0.315-5.19
				h27.198c19.642,0.345,44.402,9.242,67.923,24.415c31.422,20.271,53.329,49.327,53.258,70.655
				C463.384,226.68,463.201,409.131,463.201,409.131z M483.777,256.741l0.071-22.434c4.489,1.249,7.84,5.789,7.84,11.202
				C491.688,250.942,488.306,255.513,483.777,256.741z"/>
			<path d="M391.531,293.11c-7.354-8.087-13.694-16.957-18.999-26.459c-2.49-4.459-4.772-9.046-6.786-13.778
				c-2.007-4.715-3.754-9.525-5.237-14.412s-2.7-9.85-3.648-14.871c-0.632-3.347-1.144-6.719-1.535-10.112
				c-0.32-2.788-1.739-5.179-3.775-6.794s-4.689-2.453-7.477-2.133c-1.739,0.2-3.326,0.829-4.665,1.77
				c-0.536,0.376-1.032,0.803-1.483,1.271c-0.226,0.234-0.44,0.479-0.642,0.734c-1.414,1.782-2.234,4.036-2.203,6.439
				c0.004,0.343,0.026,0.69,0.066,1.038c0.449,3.877,1.037,7.731,1.76,11.556c1.085,5.737,2.476,11.409,4.168,16.994
				s3.686,11.082,5.974,16.471c7.201,16.92,17.113,32.387,29.462,45.956c2.011,2.204,4.753,3.321,7.515,3.321
				c2.437,0,4.885-0.873,6.835-2.651c1.554-1.413,2.568-3.2,3.029-5.101C394.658,299.182,393.892,295.7,391.531,293.11z"/>
		</g>
	</g>
</g>
<g>
	<g>
		<path d="M75.479,171.401c-5.606,0-10.156,4.55-10.156,10.156c0,5.616,4.55,10.156,10.156,10.156
			c5.606,0,10.156-4.54,10.156-10.156C85.635,175.951,81.085,171.401,75.479,171.401z"/>
	</g>
</g>
<g id="SVGCleanerId_2">
	<g>
		<path d="M100.533,151.496c-13.924-11.852-37.475-6.307-53.613,12.644c-7.251,8.521-11.882,18.565-13.04,28.284
			c-1.29,10.907,2.031,20.627,9.1,26.649c4.946,4.215,11.1,6.226,17.712,6.226c11.994,0,25.481-6.652,35.891-18.87
			c7.261-8.521,11.893-18.565,13.04-28.274C110.913,167.237,107.602,157.518,100.533,151.496z M91.474,176.002
			c-0.721,6.083-3.93,12.857-8.805,18.575c-7.993,9.384-21.591,15.894-27.837,10.582c-3.199-2.732-3.128-7.81-2.793-10.593
			c0.721-6.083,3.93-12.847,8.805-18.575c6.002-7.048,15.183-12.482,22.028-12.482c2.255,0,4.255,0.589,5.799,1.909
			C91.87,168.141,91.799,173.219,91.474,176.002z"/>
	</g>
</g>
<g>
	<g>
		<path d="M163.723,171.401c-5.606,0-10.156,4.55-10.156,10.156c0,5.616,4.55,10.156,10.156,10.156
			c5.606,0,10.156-4.54,10.156-10.156C173.879,175.951,169.329,171.401,163.723,171.401z"/>
	</g>
</g>
<g id="SVGCleanerId_3">
	<g>
		<path d="M205.322,192.424c-1.158-9.719-5.789-19.763-13.04-28.284c-16.138-18.951-39.679-24.496-53.603-12.644
			c-7.079,6.022-10.39,15.742-9.1,26.659c1.148,9.709,5.779,19.753,13.04,28.274c10.41,12.218,23.897,18.87,35.901,18.87
			c6.601,0,12.756-2.011,17.702-6.226C203.301,213.051,206.612,203.332,205.322,192.424z M184.37,205.16
			c-6.246,5.312-19.845-1.198-27.837-10.582c-4.875-5.718-8.084-12.492-8.795-18.575c-0.335-2.783-0.406-7.861,2.793-10.582
			c1.544-1.32,3.544-1.909,5.799-1.909c6.845,0,16.026,5.433,22.028,12.482c4.875,5.728,8.084,12.492,8.805,18.575
			C187.498,197.35,187.569,202.428,184.37,205.16z"/>
	</g>
</g>
<g id="SVGCleanerId_4">
	<g>
		<path d="M391.531,293.11c-10.806-11.882-19.479-25.42-25.786-40.238c-5.352-12.573-8.856-25.826-10.42-39.395
			c-0.64-5.576-5.677-9.567-11.253-8.927c-5.565,0.64-9.567,5.677-8.927,11.253c1.798,15.508,5.799,30.651,11.903,45.021
			c7.201,16.92,17.113,32.387,29.462,45.956c2.011,2.204,4.753,3.321,7.515,3.321c2.437,0,4.885-0.873,6.835-2.651
			C395.004,303.682,395.309,297.253,391.531,293.11z"/>
	</g>
</g>
<g>
	<g>
		<path d="M391.531,293.11c-10.806-11.882-19.479-25.42-25.786-40.238c-5.352-12.573-8.856-25.826-10.42-39.395
			c-0.64-5.576-5.677-9.567-11.253-8.927c-5.565,0.64-9.567,5.677-8.927,11.253c1.798,15.508,5.799,30.651,11.903,45.021
			c7.201,16.92,17.113,32.387,29.462,45.956c2.011,2.204,4.753,3.321,7.515,3.321c2.437,0,4.885-0.873,6.835-2.651
			C395.004,303.682,395.309,297.253,391.531,293.11z"/>
	</g>
</g>
<g>
	<g>
		<path d="M75.479,171.401c-5.606,0-10.156,4.55-10.156,10.156c0,5.616,4.55,10.156,10.156,10.156
			c5.606,0,10.156-4.54,10.156-10.156C85.635,175.951,81.085,171.401,75.479,171.401z"/>
	</g>
</g>
<g>
	<g>
		<path d="M75.479,171.401c-5.606,0-10.156,4.55-10.156,10.156c0,5.616,4.55,10.156,10.156,10.156
			c5.606,0,10.156-4.54,10.156-10.156C85.635,175.951,81.085,171.401,75.479,171.401z"/>
	</g>
</g>
<g>
	<g>
		<path d="M100.533,151.496c-13.924-11.852-37.475-6.307-53.613,12.644c-7.251,8.521-11.882,18.565-13.04,28.284
			c-1.29,10.907,2.031,20.627,9.1,26.649c4.946,4.215,11.1,6.226,17.712,6.226c11.994,0,25.481-6.652,35.891-18.87
			c7.261-8.521,11.893-18.565,13.04-28.274C110.913,167.237,107.602,157.518,100.533,151.496z M91.474,176.002
			c-0.721,6.083-3.93,12.857-8.805,18.575c-7.993,9.384-21.591,15.894-27.837,10.582c-3.199-2.732-3.128-7.81-2.793-10.593
			c0.721-6.083,3.93-12.847,8.805-18.575c6.002-7.048,15.183-12.482,22.028-12.482c2.255,0,4.255,0.589,5.799,1.909
			C91.87,168.141,91.799,173.219,91.474,176.002z"/>
	</g>
</g>
<g>
	<g>
		<path d="M75.479,171.401c-5.606,0-10.156,4.55-10.156,10.156c0,5.616,4.55,10.156,10.156,10.156
			c5.606,0,10.156-4.54,10.156-10.156C85.635,175.951,81.085,171.401,75.479,171.401z"/>
	</g>
</g>
<g>
	<g>
		<path d="M163.723,171.401c-5.606,0-10.156,4.55-10.156,10.156c0,5.616,4.55,10.156,10.156,10.156
			c5.606,0,10.156-4.54,10.156-10.156C173.879,175.951,169.329,171.401,163.723,171.401z"/>
	</g>
</g>
<g>
	<g>
		<path d="M163.723,171.401c-5.606,0-10.156,4.55-10.156,10.156c0,5.616,4.55,10.156,10.156,10.156
			c5.606,0,10.156-4.54,10.156-10.156C173.879,175.951,169.329,171.401,163.723,171.401z"/>
	</g>
</g>
<g>
	<g>
		<path d="M205.322,192.424c-1.158-9.719-5.789-19.763-13.04-28.284c-16.138-18.951-39.679-24.496-53.603-12.644
			c-7.079,6.022-10.39,15.742-9.1,26.659c1.148,9.709,5.779,19.753,13.04,28.274c10.41,12.218,23.897,18.87,35.901,18.87
			c6.601,0,12.756-2.011,17.702-6.226C203.301,213.051,206.612,203.332,205.322,192.424z M184.37,205.16
			c-6.246,5.312-19.845-1.198-27.837-10.582c-4.875-5.718-8.084-12.492-8.795-18.575c-0.335-2.783-0.406-7.861,2.793-10.582
			c1.544-1.32,3.544-1.909,5.799-1.909c6.845,0,16.026,5.433,22.028,12.482c4.875,5.728,8.084,12.492,8.805,18.575
			C187.498,197.35,187.569,202.428,184.37,205.16z"/>
	</g>
</g>
<g>
	<g>
		<path d="M163.723,171.401c-5.606,0-10.156,4.55-10.156,10.156c0,5.616,4.55,10.156,10.156,10.156
			c5.606,0,10.156-4.54,10.156-10.156C173.879,175.951,169.329,171.401,163.723,171.401z"/>
	</g>
</g>
<g>
</g>
<g>
</g>
<g>
</g>
<g>
</g>
<g>
</g>
<g>
</g>
<g>
</g>
<g>
</g>
<g>
</g>
<g>
</g>
<g>
</g>
<g>
</g>
<g>
</g>
<g>
</g>
<g>
</g>
</svg>
