<?xml version="1.0" ?><svg width="56px" height="56px" viewBox="0 0 56 56" xmlns="http://www.w3.org/2000/svg"><defs><style>.cls-1{fill:#231f20;}</style></defs><title/><g data-name="11 Discus Fish" id="_11_Discus_Fish"><path class="cls-1" d="M7,31a3,3,0,1,0-3-3A3,3,0,0,0,7,31Zm0-4a1,1,0,1,1-1,1A1,1,0,0,1,7,27Z"/><path class="cls-1" d="M12,32a1,1,0,0,0,0,2,3,3,0,0,0,0-6,1,1,0,0,0,0,2,1,1,0,0,1,0,2Z"/><path class="cls-1" d="M53.53,19.15a1,1,0,0,0-1,0l-8.84,4.43,6.09-8.21a1,1,0,0,0,.18-.79,1,1,0,0,0-.46-.66L34.2,4.59A15.17,15.17,0,0,0,21.63,2.53a17.91,17.91,0,0,0-11.38,8.82,20.93,20.93,0,0,0,0,33.3,18,18,0,0,0,11.38,8.82A16.73,16.73,0,0,0,25.8,54a14.5,14.5,0,0,0,8.35-2.56l15.37-9.31a1,1,0,0,0,.28-1.45l-6.09-8.21,8.84,4.42A1,1,0,0,0,53,37a1,1,0,0,0,.53-.15A1,1,0,0,0,54,36V20A1,1,0,0,0,53.53,19.15ZM22.12,4.47a13.24,13.24,0,0,1,11,1.79L47.54,15l-4.66,6.28A21,21,0,0,0,14.63,8.75,16.24,16.24,0,0,1,22.12,4.47ZM4,28a19,19,0,0,1,7.57-15.14l.11-.08A19,19,0,1,1,23,47a18.85,18.85,0,0,1-11.32-3.78l-.11-.08A19,19,0,0,1,4,28ZM33.06,49.77a13.2,13.2,0,0,1-10.94,1.76,16.24,16.24,0,0,1-7.49-4.28A21,21,0,0,0,42.88,34.71L47.54,41ZM52,34.38l-8-4V25.62l8-4Z"/><path class="cls-1" d="M17,34h6a5,5,0,0,0,5-5,1,1,0,0,0-1-1H17a1,1,0,0,0-1,1v4A1,1,0,0,0,17,34Zm1-4h7.83A3,3,0,0,1,23,32H18Z"/></g></svg>