<?xml version="1.0" encoding="iso-8859-1"?>
<!-- Generator: Adobe Illustrator 19.0.0, SVG Export Plug-In . SVG Version: 6.00 Build 0)  -->
<svg version="1.1" id="Layer_1" xmlns="http://www.w3.org/2000/svg" xmlns:xlink="http://www.w3.org/1999/xlink" x="0px" y="0px"
	 viewBox="0 0 512 512" style="enable-background:new 0 0 512 512;" xml:space="preserve">
<g>
	<g>
		<path d="M442.523,196.103c-16.531-12.592-40.008-19.821-64.407-19.821H283.78c-5.667,0-10.266,4.599-10.266,10.267
			s4.599,10.267,10.266,10.267h94.337c19.999,0,38.939,5.688,51.972,15.609c1.865,1.425,4.044,2.095,6.212,2.095
			c3.101,0,6.16-1.383,8.182-4.044C447.909,205.971,447.038,199.529,442.523,196.103z"/>
	</g>
</g>
<g>
	<g>
		<circle cx="119.794" cy="176.605" r="9.879"/>
	</g>
</g>
<g>
	<g>
		<circle cx="119.794" cy="176.605" r="9.879"/>
	</g>
</g>
<g>
	<g>
		<path d="M442.523,196.103c-16.531-12.592-40.008-19.821-64.407-19.821H283.78c-5.667,0-10.266,4.599-10.266,10.267
			s4.599,10.267,10.266,10.267h94.337c19.999,0,38.939,5.688,51.972,15.609c1.865,1.425,4.044,2.095,6.212,2.095
			c3.101,0,6.16-1.383,8.182-4.044C447.909,205.971,447.038,199.529,442.523,196.103z"/>
	</g>
</g>
<g>
	<g>
		<path d="M502.541,271.143c6.275-12.278,9.46-25.268,9.46-38.688c0-28.422-14.3-54.957-40.259-74.726
			c-25.122-19.129-58.372-29.668-93.624-29.668H241.163c-17.537-6.474-40.364-10.047-64.616-10.047
			c-2.368,0-4.714,0.042-6.988,0.094c-11.346-7.071-27.28-5.353-39.034,4.589c-17.013,3.729-30.58,9.418-39.348,16.521
			c-5.039,4.075-8.517,8.528-10.392,13.252c-0.199,0.555-1.791,7.784-6.904,14.185c-3.761,4.693-9.198,8.486-15.421,11.272
			c-5.427,2.472-11.765,3.866-18.249,4.683c-7.417,0.911-14.268-0.168-15.442,0.147c-6.369,1.676-11.712,5.06-15.892,10.067
			c-12.142,14.562-11.901,39.83,1.163,65.915c0.021,0.042,18.239,35.776,61.735,35.776c12.781,0,25.174-3.185,35.807-9.188
			c6.432-3.625,12.1-8.245,16.793-13.577c3.436,4.829,7.396,9.502,11.807,13.912c11.167,11.178,23.833,19.37,35.828,23.33
			c-0.409,30.119-9.732,52.349-18.48,58.132c-4.222,2.766-6.747,7.438-6.747,12.508c0,5.626,3.08,10.748,8.004,13.326
			c6.537,3.488,13.567,5.238,20.47,5.238c6.747,0,13.378-1.666,19.286-4.997c2.64-1.477,5.196-3.206,7.658-5.133
			c1.969,2.357,4.651,4.117,7.773,4.903c3.761,0.974,7.522,1.456,11.241,1.456c10.204,0,19.936-3.614,27.363-10.434
			c12.54-11.607,20.774-29.658,23.739-51.532c13.724,2.378,28.38,3.656,43.35,3.656c13.043,0,25.897-0.943,38.238-2.797
			c5.07,0.964,10.204,1.676,15.379,2.148c-3.939,15.861-10.099,24.891-14.813,27.992c-4.18,2.787-6.673,7.427-6.673,12.425
			c0,5.458,2.975,10.528,7.784,13.252c0.084,0.042,0.168,0.094,0.241,0.136c6.506,3.457,13.504,5.175,20.376,5.175
			c6.726,0,13.346-1.655,19.234-4.987c19.15-10.727,33.764-33.272,40.626-62.385c0.733-0.272,1.467-0.524,2.2-0.807
			c-1.519,21.633-7.951,37.106-14.771,42.198c-3.803,2.86-5.982,7.208-5.982,11.953c0,5.888,3.457,11.262,8.8,13.713
			c5.909,2.713,12.142,4.065,18.239,4.065c7.564,0,14.96-2.074,21.34-6.181c12.938-8.297,23.466-22.461,30.454-40.94
			c6.841-18.092,9.785-39.076,8.496-60.719C504.458,283.871,503.672,277.439,502.541,271.143z M234.669,368.905
			c-2.933,2.703-6.83,4.358-11.063,4.819c3.792-7.27,6.202-16.604,7.082-27.573c2.671-7.26,4.788-15.033,6.296-23.204
			c4.808,1.854,9.9,3.52,15.222,5.008C250.068,345.743,243.856,360.399,234.669,368.905z M385.378,371.577
			c-3.468,1.949-7.648,2.671-11.869,2.137c7.49-8.622,13.315-21.717,16.699-37.756c3.007-0.031,15.285-1.006,22.712-2.567
			C406.81,351.284,397.026,365.05,385.378,371.577z M481.746,271.551h-0.01c1.341,6.495,2.21,13.231,2.619,20.03
			c2.148,36.415-10.005,70.619-29.553,83.169c-3.363,2.158-7.501,3.111-11.754,2.818c11.021-14.394,17.128-39.736,15.934-68.272
			l-0.042,0.01c-0.126-1.299-0.492-2.609-1.152-3.834c-2.661-4.997-8.873-6.893-13.881-4.243c-3.981,2.127-8.203,4.044-12.54,5.709
			c-12.33,4.767-25.624,7.606-39.558,8.412c-2.64,0.157-5.406,0.241-8.203,0.241c-9.25,0-18.48-0.922-27.437-2.745
			c-1.205-0.241-2.43-0.272-3.646-0.084c-11.838,1.875-24.242,2.829-36.855,2.829c-31.879,0-61.851-6.076-82.247-16.678v0.01
			c-1.131-0.597-2.42-0.985-3.771-1.121c-5.647-0.524-10.654,3.625-11.178,9.271c-2.923,31.522-16.248,58.299-33.974,68.241
			c-3.52,1.969-7.752,2.671-12.016,2.116c12.414-14.237,20.072-40.448,20.072-70.525c0-2.064-0.042-4.138-0.126-6.338
			c-0.178-5.154-4.128-9.271-9.104-9.827c-9.785-1.718-22.23-9.188-32.633-19.59c-7.249-7.249-12.959-15.264-16.51-23.163
			c-0.01-0.031-0.031-0.063-0.052-0.094c-1.027-2.231-2.828-4.096-5.259-5.144c-5.217-2.231-11.251,0.189-13.472,5.385
			c-3.373,7.857-9.722,14.708-17.893,19.307c-7.574,4.285-16.489,5.992-25.729,6.548c-25.876,1.54-42.962-24.252-43.078-24.493
			c-10.403-20.784-9.397-37.138-4.054-43.538c1.079-1.289,2.378-2.242,3.939-2.881c0.597,0.052,9.282,0.513,13.472-0.031
			c8.863-1.173,17.296-2.975,24.849-6.422c8.968-4.023,16.783-9.806,22.66-16.741c5.102-6.066,8.548-12.76,10.319-19.925
			c0.461-1.069,1.76-2.808,4.211-4.788c6.495-5.269,18.637-9.984,33.303-12.959c2.032-0.409,3.792-1.393,5.175-2.745
			c3.394-3.384,7.7-5.217,11.408-5.217c2.305,0,4.389,0.712,5.867,2.19c3.866,3.866,2.483,11.775-3.028,17.285
			c-4.002,4.002-4.002,10.507,0,14.52c2.011,2.001,4.63,3.007,7.26,3.007c2.619,0,5.248-1.006,7.26-3.007
			c8.391-8.402,12.121-19.538,10.927-29.626c20.229,0.534,39.411,3.834,53.323,9.261c0.126,0.052,2.336,0.702,3.761,0.702
			c34.686,0,138.766,0,138.766,0c62.5,0,113.361,37.63,113.361,83.871c0,11.073-2.902,21.843-8.622,32.004
			C481.6,266.69,481.275,269.205,481.746,271.551z"/>
	</g>
</g>
<g>
	<g>
		<circle cx="119.794" cy="176.605" r="9.879"/>
	</g>
</g>
<g>
	<g>
		<path d="M442.523,196.103c-16.531-12.592-40.008-19.821-64.407-19.821H283.78c-5.667,0-10.266,4.599-10.266,10.267
			s4.599,10.267,10.266,10.267h94.337c19.999,0,38.939,5.688,51.972,15.609c1.865,1.425,4.044,2.095,6.212,2.095
			c3.101,0,6.16-1.383,8.182-4.044C447.909,205.971,447.038,199.529,442.523,196.103z"/>
	</g>
</g>
<g>
</g>
<g>
</g>
<g>
</g>
<g>
</g>
<g>
</g>
<g>
</g>
<g>
</g>
<g>
</g>
<g>
</g>
<g>
</g>
<g>
</g>
<g>
</g>
<g>
</g>
<g>
</g>
<g>
</g>
</svg>
