<?xml version="1.0" encoding="iso-8859-1"?>
<!-- Generator: Adobe Illustrator 19.0.0, SVG Export Plug-In . SVG Version: 6.00 Build 0)  -->
<svg version="1.1" id="Layer_1" xmlns="http://www.w3.org/2000/svg" xmlns:xlink="http://www.w3.org/1999/xlink" x="0px" y="0px"
	 viewBox="0 0 512 512" style="enable-background:new 0 0 512 512;" xml:space="preserve">
<g>
	<g>
		<path d="M505.617,289.724l-82.951-42.669c-2.104-1.081-4.502-1.505-6.853-1.211l-77.897,9.897v-10.99l53.671-35.287h108.658
			c6.488,0,11.754-5.266,11.754-11.754c0-6.488-5.266-11.754-11.754-11.754H388.061c-2.292,0-4.537,0.67-6.453,1.928l-43.691,28.728
			v-13.588c0-3.714-0.353-7.346-0.999-10.873l68.622-67.882c2.233-2.21,3.491-5.219,3.491-8.357V41.388
			c0-6.488-5.266-11.754-11.754-11.754c-6.5,0-11.754,5.266-11.754,11.754v69.621l-58.361,57.714
			c-4.843-6.959-11.096-12.859-18.36-17.267v-16.08c0-16.48-9.098-30.867-22.533-38.425V80.777c0-6.488-5.266-11.754-11.754-11.754
			c-6.488,0-11.754,5.266-11.754,11.754v10.532h-13.377V80.777c0-6.488-5.266-11.754-11.754-11.754s-11.754,5.266-11.754,11.754
			v16.174c-13.435,7.558-22.533,21.945-22.533,38.425v16.08c-7.217,4.373-13.435,10.226-18.266,17.126l-58.208-57.573V41.388
			c0-6.488-5.266-11.754-11.754-11.754c-6.5,0-11.754,5.266-11.754,11.754v74.523c0,3.138,1.258,6.148,3.479,8.357l68.422,67.67
			c-0.67,3.597-1.034,7.299-1.034,11.084v13.682l-43.832-28.822c-1.916-1.258-4.161-1.928-6.453-1.928H11.755
			c-6.488,0-11.754,5.266-11.754,11.754c0,6.488,5.266,11.754,11.754,11.754h108.658l53.812,35.381v10.92l-78.038-9.921
			c-2.351-0.294-4.749,0.129-6.853,1.211L6.383,289.724c-5.771,2.962-8.052,10.05-5.078,15.821
			c2.081,4.055,6.195,6.383,10.461,6.383c1.81,0,3.644-0.411,5.372-1.305l79.707-40.999l77.379,9.838v1.81
			c-4.373,5.43-8.31,11.296-11.754,17.526l-88.24,29.468c-4.796,1.61-8.028,6.101-8.028,11.155v105.32
			c0,6.488,5.266,11.754,11.754,11.754c6.488,0,11.754-5.266,11.754-11.754v-96.856l61.311-20.476
			c-2.892,10.814-4.443,22.251-4.443,34.076c0,29.527,9.733,57.949,27.411,80.036c20.782,25.966,50.697,40.847,82.081,40.847
			s61.299-14.881,82.081-40.847c17.679-22.087,27.411-50.509,27.411-80.036c0-11.954-1.575-23.509-4.537-34.417l62.322,20.817
			v96.856c0,6.488,5.254,11.754,11.754,11.754c6.488,0,11.754-5.266,11.754-11.754v-105.32c0-5.054-3.232-9.545-8.028-11.143
			l-89.381-29.856c0-0.012,0-0.012,0-0.012c-3.385-6.089-7.253-11.825-11.531-17.138v-1.822l77.238-9.827l79.707,40.999
			c1.728,0.893,3.562,1.305,5.372,1.305c4.267,0,8.381-2.327,10.461-6.383C513.669,299.774,511.388,292.686,505.617,289.724z
			 M226.849,135.376c0-11.331,9.227-20.558,20.57-20.558h17.302c11.343,0,20.57,9.227,20.57,20.558v7.899
			c-2.504-0.329-55.939-0.329-58.443,0V135.376z M197.734,203.023c0-20.265,16.48-36.744,36.744-36.744h43.186
			c20.253,0,36.744,16.48,36.744,36.744v56.21c-16.903-11.801-36.909-18.631-58.337-18.631c-21.428,0-41.434,6.829-58.337,18.631
			V203.023z M256,458.858c-23.368,0-42.539-10.191-58.831-26.483c11.907-21.076,34.311-34.358,58.901-34.358
			c24.59,0,46.994,13.282,58.901,34.37C298.68,448.679,279.368,458.858,256,458.858z M342.054,361.484
			c0,17.914-4.326,35.275-12.389,50.368c-16.926-23.156-44.103-37.344-73.594-37.344c-29.504,0-56.668,14.176-73.583,37.332
			c-8.075-15.081-12.401-32.442-12.401-50.356c0-53.694,38.578-97.374,85.984-97.374
			C303.488,264.111,342.054,307.79,342.054,361.484z"/>
	</g>
</g>
<g>
	<g>
		<path d="M314.596,322.882c-11.9-24.653-34.324-39.967-58.523-39.967c-5.843,0-10.579,4.736-10.579,10.579
			c0,5.843,4.736,10.579,10.579,10.579c16.007,0,31.13,10.732,39.47,28.007c1.824,3.78,5.601,5.983,9.534,5.983
			c1.542,0,3.109-0.339,4.591-1.054C314.93,334.468,317.136,328.144,314.596,322.882z"/>
	</g>
</g>
<g>
</g>
<g>
</g>
<g>
</g>
<g>
</g>
<g>
</g>
<g>
</g>
<g>
</g>
<g>
</g>
<g>
</g>
<g>
</g>
<g>
</g>
<g>
</g>
<g>
</g>
<g>
</g>
<g>
</g>
</svg>
